<?xml version="1.0" encoding="utf-8" standalone="no"?>
<!DOCTYPE svg PUBLIC "-//W3C//DTD SVG 1.1//EN"
  "http://www.w3.org/Graphics/SVG/1.1/DTD/svg11.dtd">
<!-- Created with matplotlib (https://matplotlib.org/) -->
<svg height="432pt" version="1.1" viewBox="0 0 576 432" width="576pt" xmlns="http://www.w3.org/2000/svg" xmlns:xlink="http://www.w3.org/1999/xlink">
 <metadata>
  <rdf:RDF xmlns:cc="http://creativecommons.org/ns#" xmlns:dc="http://purl.org/dc/elements/1.1/" xmlns:rdf="http://www.w3.org/1999/02/22-rdf-syntax-ns#">
   <cc:Work>
    <dc:type rdf:resource="http://purl.org/dc/dcmitype/StillImage"/>
    <dc:date>2020-11-09T17:11:36.637313</dc:date>
    <dc:format>image/svg+xml</dc:format>
    <dc:creator>
     <cc:Agent>
      <dc:title>Matplotlib v3.3.2, https://matplotlib.org/</dc:title>
     </cc:Agent>
    </dc:creator>
   </cc:Work>
  </rdf:RDF>
 </metadata>
 <defs>
  <style type="text/css">*{stroke-linecap:butt;stroke-linejoin:round;}</style>
 </defs>
 <g id="figure_1">
  <g id="patch_1">
   <path d="M 0 432 
L 576 432 
L 576 0 
L 0 0 
z
" style="fill:none;"/>
  </g>
  <g id="patch_2">
   <path d="M 72 432 
L 504 432 
L 504 0 
L 72 0 
z
" style="fill:none;"/>
  </g>
  <g id="axes_1">
   <g id="line2d_1">
    <path clip-path="url(#p103b0d7508)" d="M 146.707691 312.214707 
L 209.275889 318.801997 
" style="fill:none;stroke:#000000;stroke-linecap:square;stroke-opacity:0.5;stroke-width:3;"/>
   </g>
   <g id="line2d_2">
    <path clip-path="url(#p103b0d7508)" d="M 209.275889 318.801997 
L 208.770496 270.780338 
" style="fill:none;stroke:#000000;stroke-linecap:square;stroke-opacity:0.5;stroke-width:3;"/>
   </g>
   <g id="line2d_3">
    <path clip-path="url(#p103b0d7508)" d="M 208.770496 270.780338 
L 272.795448 277.105489 
" style="fill:none;stroke:#000000;stroke-linecap:square;stroke-opacity:0.5;stroke-width:3;"/>
   </g>
   <g id="line2d_4">
    <path clip-path="url(#p103b0d7508)" d="M 250.600378 297.278731 
L 272.795448 277.105489 
" style="fill:none;stroke:#000000;stroke-linecap:square;stroke-opacity:0.5;stroke-width:3;"/>
   </g>
   <g id="line2d_5">
    <path clip-path="url(#p103b0d7508)" d="M 250.600378 297.278731 
L 317.345188 304.073412 
" style="fill:none;stroke:#000000;stroke-linecap:square;stroke-opacity:0.5;stroke-width:3;"/>
   </g>
   <g id="line2d_6">
    <path clip-path="url(#p103b0d7508)" d="M 272.795448 277.105489 
L 337.939277 283.541176 
" style="fill:none;stroke:#000000;stroke-linecap:square;stroke-opacity:0.5;stroke-width:3;"/>
   </g>
   <g id="line2d_7">
    <path clip-path="url(#p103b0d7508)" d="M 317.345188 304.073412 
L 337.939277 283.541176 
" style="fill:none;stroke:#000000;stroke-linecap:square;stroke-opacity:0.5;stroke-width:3;"/>
   </g>
   <g id="Path3DCollection_1">
    <defs>
     <path d="M 0 3.872983 
C 1.027127 3.872983 2.012324 3.464901 2.738613 2.738613 
C 3.464901 2.012324 3.872983 1.027127 3.872983 0 
C 3.872983 -1.027127 3.464901 -2.012324 2.738613 -2.738613 
C 2.012324 -3.464901 1.027127 -3.872983 0 -3.872983 
C -1.027127 -3.872983 -2.012324 -3.464901 -2.738613 -2.738613 
C -3.464901 -2.012324 -3.872983 -1.027127 -3.872983 0 
C -3.872983 1.027127 -3.464901 2.012324 -2.738613 2.738613 
C -2.012324 3.464901 -1.027127 3.872983 0 3.872983 
z
" id="m581c3aa0ae" style="stroke:#ff0000;"/>
    </defs>
    <g clip-path="url(#p103b0d7508)">
     <use style="fill:#ff0000;stroke:#ff0000;" x="146.707691" xlink:href="#m581c3aa0ae" y="312.214707"/>
    </g>
   </g>
   <g id="Path3DCollection_2">
    <defs>
     <path d="M 0 3.872983 
C 1.027127 3.872983 2.012324 3.464901 2.738613 2.738613 
C 3.464901 2.012324 3.872983 1.027127 3.872983 0 
C 3.872983 -1.027127 3.464901 -2.012324 2.738613 -2.738613 
C 2.012324 -3.464901 1.027127 -3.872983 0 -3.872983 
C -1.027127 -3.872983 -2.012324 -3.464901 -2.738613 -2.738613 
C -3.464901 -2.012324 -3.872983 -1.027127 -3.872983 0 
C -3.872983 1.027127 -3.464901 2.012324 -2.738613 2.738613 
C -2.012324 3.464901 -1.027127 3.872983 0 3.872983 
z
" id="mec51ea5b6d" style="stroke:#000000;"/>
    </defs>
    <g clip-path="url(#p103b0d7508)">
     <use style="stroke:#000000;" x="209.275889" xlink:href="#mec51ea5b6d" y="318.801997"/>
    </g>
   </g>
   <g id="Path3DCollection_3">
    <g clip-path="url(#p103b0d7508)">
     <use style="stroke:#000000;" x="208.770496" xlink:href="#mec51ea5b6d" y="270.780338"/>
    </g>
   </g>
   <g id="Path3DCollection_4">
    <g clip-path="url(#p103b0d7508)">
     <use style="stroke:#000000;" x="272.795448" xlink:href="#mec51ea5b6d" y="277.105489"/>
    </g>
   </g>
   <g id="Path3DCollection_5">
    <g clip-path="url(#p103b0d7508)">
     <use style="stroke:#000000;" x="337.939277" xlink:href="#mec51ea5b6d" y="283.541176"/>
    </g>
   </g>
   <g id="Path3DCollection_6">
    <g clip-path="url(#p103b0d7508)">
     <use style="fill:#ff0000;stroke:#ff0000;" x="250.600378" xlink:href="#m581c3aa0ae" y="297.278731"/>
    </g>
   </g>
   <g id="Path3DCollection_7">
    <g clip-path="url(#p103b0d7508)">
     <use style="stroke:#000000;" x="317.345188" xlink:href="#mec51ea5b6d" y="304.073412"/>
    </g>
   </g>
  </g>
 </g>
 <defs>
  <clipPath id="p103b0d7508">
   <rect height="432" width="432" x="72" y="0"/>
  </clipPath>
 </defs>
</svg>
