<?xml version="1.0" encoding="utf-8" standalone="no"?>
<!DOCTYPE svg PUBLIC "-//W3C//DTD SVG 1.1//EN"
  "http://www.w3.org/Graphics/SVG/1.1/DTD/svg11.dtd">
<!-- Created with matplotlib (https://matplotlib.org/) -->
<svg height="432pt" version="1.1" viewBox="0 0 576 432" width="576pt" xmlns="http://www.w3.org/2000/svg" xmlns:xlink="http://www.w3.org/1999/xlink">
 <metadata>
  <rdf:RDF xmlns:cc="http://creativecommons.org/ns#" xmlns:dc="http://purl.org/dc/elements/1.1/" xmlns:rdf="http://www.w3.org/1999/02/22-rdf-syntax-ns#">
   <cc:Work>
    <dc:type rdf:resource="http://purl.org/dc/dcmitype/StillImage"/>
    <dc:date>2020-11-09T17:11:36.742350</dc:date>
    <dc:format>image/svg+xml</dc:format>
    <dc:creator>
     <cc:Agent>
      <dc:title>Matplotlib v3.3.2, https://matplotlib.org/</dc:title>
     </cc:Agent>
    </dc:creator>
   </cc:Work>
  </rdf:RDF>
 </metadata>
 <defs>
  <style type="text/css">*{stroke-linecap:butt;stroke-linejoin:round;}</style>
 </defs>
 <g id="figure_1">
  <g id="patch_1">
   <path d="M 0 432 
L 576 432 
L 576 0 
L 0 0 
z
" style="fill:none;"/>
  </g>
  <g id="patch_2">
   <path d="M 72 432 
L 504 432 
L 504 0 
L 72 0 
z
" style="fill:none;"/>
  </g>
  <g id="axes_1">
   <g id="line2d_1">
    <path clip-path="url(#p0cf8e6f70a)" d="M 119.551798 234.639634 
L 144.953594 216.342983 
" style="fill:none;stroke:#000000;stroke-linecap:square;stroke-opacity:0.5;stroke-width:3;"/>
   </g>
   <g id="line2d_2">
    <path clip-path="url(#p0cf8e6f70a)" d="M 119.551798 234.639634 
L 184.361002 240.799729 
" style="fill:none;stroke:#000000;stroke-linecap:square;stroke-opacity:0.5;stroke-width:3;"/>
   </g>
   <g id="line2d_3">
    <path clip-path="url(#p0cf8e6f70a)" d="M 146.707691 312.214707 
L 145.83584 264.562899 
" style="fill:none;stroke:#000000;stroke-linecap:square;stroke-opacity:0.5;stroke-width:3;"/>
   </g>
   <g id="line2d_4">
    <path clip-path="url(#p0cf8e6f70a)" d="M 145.83584 264.562899 
L 144.953594 216.342983 
" style="fill:none;stroke:#000000;stroke-linecap:square;stroke-opacity:0.5;stroke-width:3;"/>
   </g>
   <g id="line2d_5">
    <path clip-path="url(#p0cf8e6f70a)" d="M 144.953594 216.342983 
L 208.259025 222.181214 
" style="fill:none;stroke:#000000;stroke-linecap:square;stroke-opacity:0.5;stroke-width:3;"/>
   </g>
   <g id="line2d_6">
    <path clip-path="url(#p0cf8e6f70a)" d="M 184.361002 240.799729 
L 208.259025 222.181214 
" style="fill:none;stroke:#000000;stroke-linecap:square;stroke-opacity:0.5;stroke-width:3;"/>
   </g>
   <g id="line2d_7">
    <path clip-path="url(#p0cf8e6f70a)" d="M 208.259025 222.181214 
L 272.667827 228.121202 
" style="fill:none;stroke:#000000;stroke-linecap:square;stroke-opacity:0.5;stroke-width:3;"/>
   </g>
   <g id="Path3DCollection_1">
    <defs>
     <path d="M 0 3.872983 
C 1.027127 3.872983 2.012324 3.464901 2.738613 2.738613 
C 3.464901 2.012324 3.872983 1.027127 3.872983 0 
C 3.872983 -1.027127 3.464901 -2.012324 2.738613 -2.738613 
C 2.012324 -3.464901 1.027127 -3.872983 0 -3.872983 
C -1.027127 -3.872983 -2.012324 -3.464901 -2.738613 -2.738613 
C -3.464901 -2.012324 -3.872983 -1.027127 -3.872983 0 
C -3.872983 1.027127 -3.464901 2.012324 -2.738613 2.738613 
C -2.012324 3.464901 -1.027127 3.872983 0 3.872983 
z
" id="mfcfccbc285" style="stroke:#ff0000;"/>
    </defs>
    <g clip-path="url(#p0cf8e6f70a)">
     <use style="fill:#ff0000;stroke:#ff0000;" x="146.707691" xlink:href="#mfcfccbc285" y="312.214707"/>
    </g>
   </g>
   <g id="Path3DCollection_2">
    <defs>
     <path d="M 0 3.872983 
C 1.027127 3.872983 2.012324 3.464901 2.738613 2.738613 
C 3.464901 2.012324 3.872983 1.027127 3.872983 0 
C 3.872983 -1.027127 3.464901 -2.012324 2.738613 -2.738613 
C 2.012324 -3.464901 1.027127 -3.872983 0 -3.872983 
C -1.027127 -3.872983 -2.012324 -3.464901 -2.738613 -2.738613 
C -3.464901 -2.012324 -3.872983 -1.027127 -3.872983 0 
C -3.872983 1.027127 -3.464901 2.012324 -2.738613 2.738613 
C -2.012324 3.464901 -1.027127 3.872983 0 3.872983 
z
" id="md2d9c77c77" style="stroke:#000000;"/>
    </defs>
    <g clip-path="url(#p0cf8e6f70a)">
     <use style="stroke:#000000;" x="145.83584" xlink:href="#md2d9c77c77" y="264.562899"/>
    </g>
   </g>
   <g id="Path3DCollection_3">
    <g clip-path="url(#p0cf8e6f70a)">
     <use style="stroke:#000000;" x="144.953594" xlink:href="#md2d9c77c77" y="216.342983"/>
    </g>
   </g>
   <g id="Path3DCollection_4">
    <g clip-path="url(#p0cf8e6f70a)">
     <use style="stroke:#000000;" x="208.259025" xlink:href="#md2d9c77c77" y="222.181214"/>
    </g>
   </g>
   <g id="Path3DCollection_5">
    <g clip-path="url(#p0cf8e6f70a)">
     <use style="stroke:#000000;" x="272.667827" xlink:href="#md2d9c77c77" y="228.121202"/>
    </g>
   </g>
   <g id="Path3DCollection_6">
    <g clip-path="url(#p0cf8e6f70a)">
     <use style="fill:#ff0000;stroke:#ff0000;" x="119.551798" xlink:href="#mfcfccbc285" y="234.639634"/>
    </g>
   </g>
   <g id="Path3DCollection_7">
    <g clip-path="url(#p0cf8e6f70a)">
     <use style="stroke:#000000;" x="184.361002" xlink:href="#md2d9c77c77" y="240.799729"/>
    </g>
   </g>
  </g>
 </g>
 <defs>
  <clipPath id="p0cf8e6f70a">
   <rect height="432" width="432" x="72" y="0"/>
  </clipPath>
 </defs>
</svg>
