<?xml version="1.0" encoding="utf-8"?>
<!-- Generator: Adobe Illustrator 25.0.0, SVG Export Plug-In . SVG Version: 6.00 Build 0)  -->
<svg version="1.1" id="Layer_1" xmlns="http://www.w3.org/2000/svg" xmlns:xlink="http://www.w3.org/1999/xlink" x="0px" y="0px"
	 viewBox="0 0 576 432" style="enable-background:new 0 0 576 432;" xml:space="preserve">
<style type="text/css">
	.st0{fill:none;}
	.st1{fill:none;stroke:#4F1167;stroke-width:3;stroke-linecap:square;stroke-linejoin:round;}
	.st2{stroke:#000000;stroke-linejoin:round;}
	.st3{fill:#FF0000;stroke:#FF0000;stroke-linejoin:round;}
</style>
<g id="patch_1">
	<path class="st0" d="M0,432h576V0H0V432z"/>
</g>
<g id="patch_2">
	<path class="st0" d="M72,432h432V0H72V432z"/>
</g>
<rect x="72" class="st0" width="432" height="432"/>
<path class="st1" d="M121.7,332.9l25-20.6"/>
<rect x="72" class="st0" width="432" height="432"/>
<path class="st1" d="M121.7,332.9l64,6.9"/>
<rect x="72" class="st0" width="432" height="432"/>
<path class="st1" d="M119.6,234.6l25.4-18.3"/>
<rect x="72" class="st0" width="432" height="432"/>
<path class="st1" d="M146.7,312.2l-0.9-47.7"/>
<rect x="72" class="st0" width="432" height="432"/>
<path class="st1" d="M145.8,264.6l-0.9-48.2"/>
<rect x="72" class="st0" width="432" height="432"/>
<path class="st1" d="M185.7,339.8l65.2,7.1"/>
<rect x="72" class="st0" width="432" height="432"/>
<g>
	<g>
		<path id="m5fde779004" class="st2" d="M146.7,316.1c1,0,2-0.4,2.7-1.1s1.1-1.7,1.1-2.7s-0.4-2-1.1-2.7s-1.7-1.1-2.7-1.1
			s-2,0.4-2.7,1.1s-1.1,1.7-1.1,2.7s0.4,2,1.1,2.7S145.7,316.1,146.7,316.1z"/>
	</g>
</g>
<rect x="72" class="st0" width="432" height="432"/>
<g>
	<g>
		<path id="m5fde779004_1_" class="st2" d="M145.8,268.4c1,0,2-0.4,2.7-1.1s1.1-1.7,1.1-2.7s-0.4-2-1.1-2.7s-1.7-1.1-2.7-1.1
			s-2,0.4-2.7,1.1s-1.1,1.7-1.1,2.7s0.4,2,1.1,2.7S144.8,268.4,145.8,268.4z"/>
	</g>
</g>
<rect x="72" class="st0" width="432" height="432"/>
<g>
	<g>
		<path id="m5fde779004_2_" class="st2" d="M145,220.2c1,0,2-0.4,2.7-1.1s1.1-1.7,1.1-2.7s-0.4-2-1.1-2.7s-1.7-1.1-2.7-1.1
			s-2,0.4-2.7,1.1s-1.1,1.7-1.1,2.7s0.4,2,1.1,2.7S143.9,220.2,145,220.2z"/>
	</g>
</g>
<rect x="72" class="st0" width="432" height="432"/>
<g>
	<g>
		<path id="m1ba4d32c31" class="st3" d="M121.7,336.7c1,0,2-0.4,2.7-1.1s1.1-1.7,1.1-2.7s-0.4-2-1.1-2.7s-1.7-1.1-2.7-1.1
			s-2,0.4-2.7,1.1s-1.1,1.7-1.1,2.7s0.4,2,1.1,2.7S120.6,336.7,121.7,336.7z"/>
	</g>
</g>
<rect x="72" class="st0" width="432" height="432"/>
<g>
	<g>
		<path id="m5fde779004_3_" class="st2" d="M185.7,343.7c1,0,2-0.4,2.7-1.1s1.1-1.7,1.1-2.7s-0.4-2-1.1-2.7s-1.7-1.1-2.7-1.1
			s-2,0.4-2.7,1.1s-1.1,1.7-1.1,2.7s0.4,2,1.1,2.7S184.7,343.7,185.7,343.7z"/>
	</g>
</g>
<rect x="72" class="st0" width="432" height="432"/>
<g>
	<g>
		<path id="m5fde779004_4_" class="st2" d="M119.6,238.5c1,0,2-0.4,2.7-1.1s1.1-1.7,1.1-2.7s-0.4-2-1.1-2.7s-1.7-1.1-2.7-1.1
			s-2,0.4-2.7,1.1s-1.1,1.7-1.1,2.7s0.4,2,1.1,2.7S118.5,238.5,119.6,238.5z"/>
	</g>
</g>
<rect x="72" class="st0" width="432" height="432"/>
<g>
	<g>
		<path id="m5fde779004_5_" class="st2" d="M250.9,350.7c1,0,2-0.4,2.7-1.1s1.1-1.7,1.1-2.7s-0.4-2-1.1-2.7s-1.7-1.1-2.7-1.1
			s-2,0.4-2.7,1.1s-1.1,1.7-1.1,2.7s0.4,2,1.1,2.7S249.8,350.7,250.9,350.7z"/>
	</g>
</g>
</svg>
