<?xml version="1.0" encoding="utf-8" standalone="no"?>
<!DOCTYPE svg PUBLIC "-//W3C//DTD SVG 1.1//EN"
  "http://www.w3.org/Graphics/SVG/1.1/DTD/svg11.dtd">
<!-- Created with matplotlib (https://matplotlib.org/) -->
<svg height="432pt" version="1.1" viewBox="0 0 576 432" width="576pt" xmlns="http://www.w3.org/2000/svg" xmlns:xlink="http://www.w3.org/1999/xlink">
 <metadata>
  <rdf:RDF xmlns:cc="http://creativecommons.org/ns#" xmlns:dc="http://purl.org/dc/elements/1.1/" xmlns:rdf="http://www.w3.org/1999/02/22-rdf-syntax-ns#">
   <cc:Work>
    <dc:type rdf:resource="http://purl.org/dc/dcmitype/StillImage"/>
    <dc:date>2020-11-09T17:11:36.689989</dc:date>
    <dc:format>image/svg+xml</dc:format>
    <dc:creator>
     <cc:Agent>
      <dc:title>Matplotlib v3.3.2, https://matplotlib.org/</dc:title>
     </cc:Agent>
    </dc:creator>
   </cc:Work>
  </rdf:RDF>
 </metadata>
 <defs>
  <style type="text/css">*{stroke-linecap:butt;stroke-linejoin:round;}</style>
 </defs>
 <g id="figure_1">
  <g id="patch_1">
   <path d="M 0 432 
L 576 432 
L 576 0 
L 0 0 
z
" style="fill:none;"/>
  </g>
  <g id="patch_2">
   <path d="M 72 432 
L 504 432 
L 504 0 
L 72 0 
z
" style="fill:none;"/>
  </g>
  <g id="axes_1">
   <g id="line2d_1">
    <path clip-path="url(#p36e4d527df)" d="M 120.612359 284.045834 
L 185.033064 290.60392 
" style="fill:none;stroke:#000000;stroke-linecap:square;stroke-opacity:0.5;stroke-width:3;"/>
   </g>
   <g id="line2d_2">
    <path clip-path="url(#p36e4d527df)" d="M 185.033064 290.60392 
L 208.770496 270.780338 
" style="fill:none;stroke:#000000;stroke-linecap:square;stroke-opacity:0.5;stroke-width:3;"/>
   </g>
   <g id="line2d_3">
    <path clip-path="url(#p36e4d527df)" d="M 185.033064 290.60392 
L 250.600378 297.278731 
" style="fill:none;stroke:#000000;stroke-linecap:square;stroke-opacity:0.5;stroke-width:3;"/>
   </g>
   <g id="line2d_4">
    <path clip-path="url(#p36e4d527df)" d="M 250.86652 346.869208 
L 250.600378 297.278731 
" style="fill:none;stroke:#000000;stroke-linecap:square;stroke-opacity:0.5;stroke-width:3;"/>
   </g>
   <g id="line2d_5">
    <path clip-path="url(#p36e4d527df)" d="M 250.86652 346.869208 
L 272.921539 325.502724 
" style="fill:none;stroke:#000000;stroke-linecap:square;stroke-opacity:0.5;stroke-width:3;"/>
   </g>
   <g id="line2d_6">
    <path clip-path="url(#p36e4d527df)" d="M 272.921539 325.502724 
L 337.672715 332.319842 
" style="fill:none;stroke:#000000;stroke-linecap:square;stroke-opacity:0.5;stroke-width:3;"/>
   </g>
   <g id="Path3DCollection_1">
    <defs>
     <path d="M 0 3.872983 
C 1.027127 3.872983 2.012324 3.464901 2.738613 2.738613 
C 3.464901 2.012324 3.872983 1.027127 3.872983 0 
C 3.872983 -1.027127 3.464901 -2.012324 2.738613 -2.738613 
C 2.012324 -3.464901 1.027127 -3.872983 0 -3.872983 
C -1.027127 -3.872983 -2.012324 -3.464901 -2.738613 -2.738613 
C -3.464901 -2.012324 -3.872983 -1.027127 -3.872983 0 
C -3.872983 1.027127 -3.464901 2.012324 -2.738613 2.738613 
C -2.012324 3.464901 -1.027127 3.872983 0 3.872983 
z
" id="m326b055393" style="stroke:#000000;"/>
    </defs>
    <g clip-path="url(#p36e4d527df)">
     <use style="stroke:#000000;" x="208.770496" xlink:href="#m326b055393" y="270.780338"/>
    </g>
   </g>
   <g id="Path3DCollection_2">
    <g clip-path="url(#p36e4d527df)">
     <use style="stroke:#000000;" x="272.921539" xlink:href="#m326b055393" y="325.502724"/>
    </g>
   </g>
   <g id="Path3DCollection_3">
    <g clip-path="url(#p36e4d527df)">
     <use style="stroke:#000000;" x="337.672715" xlink:href="#m326b055393" y="332.319842"/>
    </g>
   </g>
   <g id="Path3DCollection_4">
    <defs>
     <path d="M 0 3.872983 
C 1.027127 3.872983 2.012324 3.464901 2.738613 2.738613 
C 3.464901 2.012324 3.872983 1.027127 3.872983 0 
C 3.872983 -1.027127 3.464901 -2.012324 2.738613 -2.738613 
C 2.012324 -3.464901 1.027127 -3.872983 0 -3.872983 
C -1.027127 -3.872983 -2.012324 -3.464901 -2.738613 -2.738613 
C -3.464901 -2.012324 -3.872983 -1.027127 -3.872983 0 
C -3.872983 1.027127 -3.464901 2.012324 -2.738613 2.738613 
C -2.012324 3.464901 -1.027127 3.872983 0 3.872983 
z
" id="m32f390032b" style="stroke:#ff0000;"/>
    </defs>
    <g clip-path="url(#p36e4d527df)">
     <use style="fill:#ff0000;stroke:#ff0000;" x="120.612359" xlink:href="#m32f390032b" y="284.045834"/>
    </g>
   </g>
   <g id="Path3DCollection_5">
    <g clip-path="url(#p36e4d527df)">
     <use style="stroke:#000000;" x="185.033064" xlink:href="#m326b055393" y="290.60392"/>
    </g>
   </g>
   <g id="Path3DCollection_6">
    <g clip-path="url(#p36e4d527df)">
     <use style="fill:#ff0000;stroke:#ff0000;" x="250.86652" xlink:href="#m32f390032b" y="346.869208"/>
    </g>
   </g>
   <g id="Path3DCollection_7">
    <g clip-path="url(#p36e4d527df)">
     <use style="stroke:#000000;" x="250.600378" xlink:href="#m326b055393" y="297.278731"/>
    </g>
   </g>
  </g>
 </g>
 <defs>
  <clipPath id="p36e4d527df">
   <rect height="432" width="432" x="72" y="0"/>
  </clipPath>
 </defs>
</svg>
